#N canvas 478 237 810 651 10;
#X obj 107 371 / 127;
#X obj 107 393 sig~;
#X obj 442 285 > 0;
#X obj 520 355 / 127;
#X obj 520 377 sig~;
#X obj 107 415 outlet~ PITCH;
#X obj 393 547 outlet~ GATE;
#X obj 520 399 outlet~ VELOCITY;
#X obj 152 126 cnv 15 15 15 empty \$0-midi-gui-r empty 20 12 0 14 -33289
-262144 0;
#X floatatom 185 126 5 0 0 2 - #0_velocity_r -;
#X floatatom 103 126 5 0 0 2 - #0-gui-notein -;
#X obj 103 146 cnv 5 5 5 empty empty NOTE 0 3 0 8 -262144 -66577 0
;
#X obj 150 146 cnv 5 5 5 empty empty GATE 0 3 0 8 -262144 -66577 0
;
#X obj 202 146 cnv 5 5 5 empty empty VEL 0 3 0 8 -262144 -1 0;
#X obj 161 109 cnv 5 5 5 empty empty M-IN-ADV 0 0 0 12 -262144 -66577
0;
#X obj 353 335 route 0;
#X obj 393 525 vline~;
#X obj 107 301 spigot;
#X obj 140 227 > 0;
#X obj 124 181 notein;
#X obj 442 259 spigot;
#X floatatom 490 112 5 0 0 0 - - -;
#X obj 475 212 ==;
#X obj 192 284 ==;
#X floatatom 103 103 3 1 16 2 - #0-channel-select-r #0-channel-select-s
;
#X obj 126 115 cnv 5 5 5 empty empty CH-IN 0 0 0 8 -262144 -66577 0
;
#X text 435 235 CHANEL FILTER;
#X text 159 302 CHANEL FILTER;
#X obj 107 251 spigot;
#X obj 442 186 notein;
#X text 47 214 PITCH;
#X text 47 228 ZERO VELOCITY;
#X text 47 242 FILTER;
#X obj 276 366 f;
#X obj 299 335 t b f;
#X obj 276 390 ==;
#X obj 276 425 spigot;
#X msg 309 389 1;
#X msg 339 389 0;
#X obj 276 446 select 1;
#X msg 230 525 color 12;
#X msg 291 525 color 13;
#X obj 261 547 s \$0-midi-gui-r;
#X text 244 407 FALSE NOTEOFF FILTER;
#X obj 520 332 spigot;
#X obj 579 354 s \$0_velocity_r;
#X obj 356 40 inlet;
#X msg 395 61 1;
#X obj 395 40 loadbang;
#X obj 356 85 s \$0-channel-select-r;
#X obj 490 85 r \$0-channel-select-s;
#X obj 4 340 s \$0-gui-notein;
#X obj 65 547 s \$0-gui-notein;
#X obj 163 547 s \$0_velocity_r;
#X msg 199 526 0;
#X text 69 570 ---------------------- GUI ---------------------;
#X text 387 570 --- SIGNAL ---;
#X msg 338 477 0 2 0;
#X msg 392 476 1 2 0;
#X connect 0 0 1 0;
#X connect 1 0 5 0;
#X connect 2 0 15 0;
#X connect 2 0 44 1;
#X connect 3 0 4 0;
#X connect 4 0 7 0;
#X connect 15 0 37 0;
#X connect 15 1 38 0;
#X connect 15 1 58 0;
#X connect 16 0 6 0;
#X connect 17 0 0 0;
#X connect 17 0 33 1;
#X connect 17 0 51 0;
#X connect 18 0 28 1;
#X connect 19 0 28 0;
#X connect 19 1 18 0;
#X connect 19 2 23 0;
#X connect 20 0 2 0;
#X connect 20 0 44 0;
#X connect 21 0 22 1;
#X connect 21 0 23 1;
#X connect 22 0 20 1;
#X connect 23 0 17 1;
#X connect 28 0 17 0;
#X connect 29 0 34 0;
#X connect 29 1 20 0;
#X connect 29 2 22 0;
#X connect 33 0 35 0;
#X connect 34 0 33 0;
#X connect 34 1 35 1;
#X connect 35 0 36 0;
#X connect 36 0 39 0;
#X connect 37 0 36 1;
#X connect 38 0 36 1;
#X connect 39 0 57 0;
#X connect 40 0 42 0;
#X connect 41 0 42 0;
#X connect 44 0 3 0;
#X connect 44 0 45 0;
#X connect 46 0 49 0;
#X connect 47 0 49 0;
#X connect 48 0 47 0;
#X connect 50 0 21 0;
#X connect 54 0 52 0;
#X connect 54 0 53 0;
#X connect 57 0 16 0;
#X connect 57 0 40 0;
#X connect 57 0 54 0;
#X connect 58 0 16 0;
#X connect 58 0 41 0;
#X coords 0 -1 1 1 120 55 2 100 100;
